{"asset":{"version":"2.0","generator":"VECTARY"},"nodes":[{"translation":[-5.487109306161418e-20,0.03416029988490938,0.01581551579300464],"scale":[0.001,0.001,0.001],"rotation":[-0.6070548527945785,0.3626077849392544,0.36260778493925444,0.6070548527945786],"name":"drill5","mesh":0}],"materials":[{"pbrMetallicRoughness":{"baseColorFactor":[0.0003671362698159426,0.0003671362698159426,0.0004925037871914326,1],"metallicFactor":0,"roughnessFactor":0.2},"name":"Jackpot","emissiveFactor":[0,0,0],"extensions":{},"alphaMode":"OPAQUE","doubleSided":false}],"meshes":[{"primitives":[{"mode":4,"attributes":{"POSITION":1,"NORMAL":2,"TEXCOORD_0":3},"material":0,"indices":0}]}],"accessors":[{"bufferView":0,"byteOffset":0,"componentType":5125,"count":3279,"type":"SCALAR"},{"bufferView":1,"byteOffset":0,"componentType":5126,"count":3204,"max":[37.09443664550781,9.445636749267578,35.430458068847656],"min":[-37.09443664550781,-9.445636749267578,-35.12063217163086],"type":"VEC3"},{"bufferView":2,"byteOffset":0,"componentType":5126,"count":3204,"type":"VEC3"},{"bufferView":3,"byteOffset":0,"componentType":5126,"count":3204,"type":"VEC2"}],"bufferViews":[{"buffer":0,"byteOffset":0,"byteLength":13116,"target":34963},{"buffer":0,"byteOffset":13116,"byteLength":38448,"target":34962},{"buffer":0,"byteOffset":51564,"byteLength":38448,"target":34962},{"buffer":0,"byteOffset":90012,"byteLength":25632,"target":34962}],"scene":0,"scenes":[{"nodes":[0],"name":"drill"}],"extensionsUsed":["KHR_texture_transform"],"buffers":[{"byteLength":115644,"uri":"drill.bin"}]}