{"asset":{"version":"2.0","generator":"VECTARY"},"nodes":[{"translation":[1.7493543898001166e-49,0,0],"scale":[0.01,0.01,0.01],"rotation":[-0.6305728800698256,0.31996537769022015,0.3199653776902202,0.6305728800698257],"name":"Panel.1","children":[1,2]},{"translation":[0,0,49.937],"scale":[1,1,1],"rotation":[0,0,0,1],"name":"Cylinder","mesh":0},{"translation":[0,0,52.126],"scale":[1,1,1],"rotation":[0,0,0,1],"name":"Plane.003","mesh":1}],"materials":[{"pbrMetallicRoughness":{"baseColorFactor":[1,1,1,1],"baseColorTexture":{"index":0,"extensions":{"KHR_texture_transform":{"offset":[0,0],"scale":[1,1],"rotation":0}},"texCoord":0},"metallicFactor":0,"roughnessFactor":0.674},"name":"Environment","emissiveFactor":[0,0,0],"extensions":{},"alphaMode":"OPAQUE","doubleSided":false}],"textures":[{"sampler":0,"source":0}],"images":[{"uri":"Gltf_Import.jpg","mimeType":"image/jpeg"}],"samplers":[{"wrapS":10497,"wrapT":10497}],"meshes":[{"primitives":[{"mode":4,"attributes":{"POSITION":1,"NORMAL":2,"TEXCOORD_0":3},"material":0,"indices":0}]},{"primitives":[{"mode":4,"attributes":{"POSITION":5,"NORMAL":6,"TEXCOORD_0":7},"material":0,"indices":4}]}],"accessors":[{"bufferView":0,"byteOffset":0,"componentType":5125,"count":552,"type":"SCALAR"},{"bufferView":1,"byteOffset":0,"componentType":5126,"count":204,"max":[61.645687103271484,86.44216918945312,32.64193344116211],"min":[-61.611663818359375,-36.79020309448242,-151.3816680908203],"type":"VEC3"},{"bufferView":2,"byteOffset":0,"componentType":5126,"count":204,"type":"VEC3"},{"bufferView":3,"byteOffset":0,"componentType":5126,"count":204,"type":"VEC2"},{"bufferView":4,"byteOffset":0,"componentType":5125,"count":1944,"type":"SCALAR"},{"bufferView":5,"byteOffset":0,"componentType":5126,"count":812,"max":[176.72293090820312,125.18982696533203,153.49180603027344],"min":[-176.72293090820312,-125.89484405517578,-97.59284973144531],"type":"VEC3"},{"bufferView":6,"byteOffset":0,"componentType":5126,"count":812,"type":"VEC3"},{"bufferView":7,"byteOffset":0,"componentType":5126,"count":812,"type":"VEC2"}],"bufferViews":[{"buffer":0,"byteOffset":0,"byteLength":2208,"target":34963},{"buffer":0,"byteOffset":2208,"byteLength":2448,"target":34962},{"buffer":0,"byteOffset":4656,"byteLength":2448,"target":34962},{"buffer":0,"byteOffset":7104,"byteLength":1632,"target":34962},{"buffer":0,"byteOffset":8736,"byteLength":7776,"target":34963},{"buffer":0,"byteOffset":16512,"byteLength":9744,"target":34962},{"buffer":0,"byteOffset":26256,"byteLength":9744,"target":34962},{"buffer":0,"byteOffset":36000,"byteLength":6496,"target":34962}],"scene":0,"scenes":[{"nodes":[0],"name":"energy"}],"extensionsUsed":["KHR_texture_transform"],"buffers":[{"byteLength":42496,"uri":"energy.bin"}]}